<mxfile host="app.diagrams.net" modified="2024-01-17T08:07:15.281Z" agent="Mozilla/5.0 (Macintosh; Intel Mac OS X 10_15_7) AppleWebKit/537.36 (KHTML, like Gecko) Chrome/120.0.0.0 Safari/537.36" version="22.1.20" etag="i9q7s344wLWfxMTW48a9" type="github">
  <diagram name="第 1 页" id="qA0LnHvat6rmAh3GzstB">
    <mxGraphModel>
      <root>
        <mxCell id="0" />
        <mxCell id="1" parent="0" />
      </root>
    </mxGraphModel>
  </diagram>
</mxfile>
